<?xml version="1.0" standalone="no"?><!DOCTYPE svg PUBLIC "-//W3C//DTD SVG 1.1//EN" "http://www.w3.org/Graphics/SVG/1.1/DTD/svg11.dtd"><svg t="1612603913192" class="icon" viewBox="0 0 1024 1024" version="1.1" xmlns="http://www.w3.org/2000/svg" p-id="2054" width="32" height="32" xmlns:xlink="http://www.w3.org/1999/xlink"><defs><style type="text/css"></style></defs><path d="M832 96a32 32 0 0 1 32 32v768a32 32 0 0 1-32 32H192a32 32 0 0 1-32-32V128a32 32 0 0 1 32-32h640m0-96H192a128 128 0 0 0-128 128v768a128 128 0 0 0 128 128h640a128 128 0 0 0 128-128V128a128 128 0 0 0-128-128z" fill="#4C4A58" p-id="2055"></path><path d="M335.36 272A48 48 0 1 0 384 320a48 48 0 0 0-48-48zM695.04 272h-224a48 48 0 1 0 0 96h224a48 48 0 0 0 0-96zM335.36 464A48 48 0 1 0 384 512a48 48 0 0 0-48-48zM695.04 464h-224a48 48 0 1 0 0 96h224a48 48 0 0 0 0-96zM335.36 656A48 48 0 1 0 384 704a48 48 0 0 0-48-48zM695.04 656h-224a48 48 0 1 0 0 96h224a48 48 0 0 0 0-96z" fill="#51C75B" p-id="2056"></path></svg>